<?xml version="1.0" encoding="UTF-8" standalone="no"?>
<!DOCTYPE svg PUBLIC "-//W3C//DTD SVG 1.1//EN" "http://www.w3.org/Graphics/SVG/1.1/DTD/svg11.dtd">
<!-- 由 Microsoft Visio, SVG Export 生成 1.svg Page-1 -->
<svg xmlns="http://www.w3.org/2000/svg" xmlns:xlink="http://www.w3.org/1999/xlink" xmlns:ev="http://www.w3.org/2001/xml-events"
		xmlns:v="http://schemas.microsoft.com/visio/2003/SVGExtensions/" width="11.6929in" height="8.26772in"
		viewBox="0 0 841.89 595.276" xml:space="preserve" color-interpolation-filters="sRGB" class="st14">
	<v:documentProperties v:langID="2052" v:metric="true" v:viewMarkup="false">
		<v:userDefs>
			<v:ud v:nameU="msvSubprocessMaster" v:prompt="" v:val="VT4(Rectangle)"/>
			<v:ud v:nameU="msvNoAutoConnect" v:val="VT0(1):26"/>
		</v:userDefs>
	</v:documentProperties>

	<style type="text/css">
	<![CDATA[
		.st1 {visibility:visible}
		.st2 {fill:#5b9bd5;fill-opacity:0.22;filter:url(#filter_2);stroke:#5b9bd5;stroke-opacity:0.22}
		.st3 {fill:#5b9bd5;stroke:#c7c8c8;stroke-width:0.25}
		.st4 {fill:#feffff;font-family:Calibri;font-size:1.5em}
		.st5 {fill:#ed7d31;stroke:#c7c8c8;stroke-width:0.25}
		.st6 {fill:#00b050;stroke:#c7c8c8;stroke-width:0.25}
		.st7 {marker-end:url(#mrkr4-36);stroke:#5b9bd5;stroke-linecap:round;stroke-linejoin:round;stroke-width:1}
		.st8 {fill:#5b9bd5;fill-opacity:1;stroke:#5b9bd5;stroke-opacity:1;stroke-width:0.28409090909091}
		.st9 {fill:url(#grad0-40);stroke:#4f87bb;stroke-width:0.75}
		.st10 {fill:#4f87bb;font-family:Calibri;font-size:1.99999em}
		.st11 {fill:#4f87bb;font-family:Calibri;font-size:1.5em}
		.st12 {fill:#4f87bb;font-family:Calibri;font-size:0.833336em}
		.st13 {stroke:#5b9bd5;stroke-linecap:round;stroke-linejoin:round;stroke-width:1}
		.st14 {fill:none;fill-rule:evenodd;font-size:12px;overflow:visible;stroke-linecap:square;stroke-miterlimit:3}
	]]>
	</style>

	<defs id="Patterns_And_Gradients">
		<linearGradient id="grad0-40" x1="0" y1="0" x2="1" y2="0" gradientTransform="rotate(60 0.5 0.5)">
			<stop offset="0" stop-color="#e9eff7" stop-opacity="1"/>
			<stop offset="0.24" stop-color="#f4f7fb" stop-opacity="1"/>
			<stop offset="0.54" stop-color="#feffff" stop-opacity="1"/>
		</linearGradient>
	</defs>
	<defs id="Markers">
		<g id="lend4">
			<path d="M 2 1 L 0 0 L 2 -1 L 2 1 " style="stroke:none"/>
		</g>
		<marker id="mrkr4-36" class="st8" v:arrowType="4" v:arrowSize="2" v:setback="7.04" refX="-7.04" orient="auto"
				markerUnits="strokeWidth" overflow="visible">
			<use xlink:href="#lend4" transform="scale(-3.52,-3.52) "/>
		</marker>
	</defs>
	<defs id="Filters">
		<filter id="filter_2">
			<feGaussianBlur stdDeviation="2"/>
		</filter>
	</defs>
	<g v:mID="0" v:index="1" v:groupContext="foregroundPage">
		<v:userDefs>
			<v:ud v:nameU="msvThemeOrder" v:val="VT0(0):26"/>
		</v:userDefs>
		<title>页-1</title>
		<v:pageProperties v:drawingScale="0.0393701" v:pageScale="0.0393701" v:drawingUnits="24" v:shadowOffsetX="8.50394"
				v:shadowOffsetY="-8.50394"/>
		<v:layer v:name="连接线" v:index="0"/>
		<g id="shape1-1" v:mID="1" v:groupContext="shape" transform="translate(474.803,-444.395)">
			<title>椭圆形</title>
			<desc>Client</desc>
			<v:userDefs>
				<v:ud v:nameU="visVersion" v:val="VT0(15):26"/>
			</v:userDefs>
			<v:textBlock v:margins="rect(4,4,4,4)" v:tabSpace="42.5197"/>
			<v:textRect cx="63.7795" cy="568.604" width="111.62" height="46.675"/>
			<g id="shadow1-2" v:groupContext="shadow" v:shadowOffsetX="0.345598" v:shadowOffsetY="-1.97279" v:shadowType="1"
					transform="matrix(1,0,0,1,0.345598,1.97279)" class="st1">
				<path d="M0 568.6 A63.7795 26.6714 0 0 1 127.56 568.6 A63.7795 26.6714 0 1 1 0 568.6 Z" class="st2"/>
			</g>
			<path d="M0 568.6 A63.7795 26.6714 0 0 1 127.56 568.6 A63.7795 26.6714 0 1 1 0 568.6 Z" class="st3"/>
			<text x="42.63" y="574" class="st4" v:langID="2052"><v:paragraph v:horizAlign="1"/><v:tabList/>Client</text>		</g>
		<g id="shape2-7" v:mID="2" v:groupContext="shape" transform="translate(177.165,-444.395)">
			<title>椭圆形.2</title>
			<desc>Client</desc>
			<v:userDefs>
				<v:ud v:nameU="visVersion" v:val="VT0(15):26"/>
			</v:userDefs>
			<v:textBlock v:margins="rect(4,4,4,4)" v:tabSpace="42.5197"/>
			<v:textRect cx="63.7795" cy="568.604" width="111.62" height="46.675"/>
			<g id="shadow2-8" v:groupContext="shadow" v:shadowOffsetX="0.345598" v:shadowOffsetY="-1.97279" v:shadowType="1"
					transform="matrix(1,0,0,1,0.345598,1.97279)" class="st1">
				<path d="M0 568.6 A63.7795 26.6714 0 0 1 127.56 568.6 A63.7795 26.6714 0 1 1 0 568.6 Z" class="st2"/>
			</g>
			<path d="M0 568.6 A63.7795 26.6714 0 0 1 127.56 568.6 A63.7795 26.6714 0 1 1 0 568.6 Z" class="st3"/>
			<text x="42.63" y="574" class="st4" v:langID="2052"><v:paragraph v:horizAlign="1"/><v:tabList/>Client</text>		</g>
		<g id="shape3-13" v:mID="3" v:groupContext="shape" transform="translate(325.984,-444.395)">
			<title>椭圆形.3</title>
			<desc>Client</desc>
			<v:userDefs>
				<v:ud v:nameU="visVersion" v:val="VT0(15):26"/>
			</v:userDefs>
			<v:textBlock v:margins="rect(4,4,4,4)" v:tabSpace="42.5197"/>
			<v:textRect cx="63.7795" cy="568.604" width="111.62" height="46.675"/>
			<g id="shadow3-14" v:groupContext="shadow" v:shadowOffsetX="0.345598" v:shadowOffsetY="-1.97279" v:shadowType="1"
					transform="matrix(1,0,0,1,0.345598,1.97279)" class="st1">
				<path d="M0 568.6 A63.7795 26.6714 0 0 1 127.56 568.6 A63.7795 26.6714 0 1 1 0 568.6 Z" class="st2"/>
			</g>
			<path d="M0 568.6 A63.7795 26.6714 0 0 1 127.56 568.6 A63.7795 26.6714 0 1 1 0 568.6 Z" class="st3"/>
			<text x="42.63" y="574" class="st4" v:langID="2052"><v:paragraph v:horizAlign="1"/><v:tabList/>Client</text>		</g>
		<g id="shape4-19" v:mID="4" v:groupContext="shape" transform="translate(309.797,-276.055)">
			<title>椭圆形.4</title>
			<desc>Reactor</desc>
			<v:userDefs>
				<v:ud v:nameU="visVersion" v:val="VT0(15):26"/>
			</v:userDefs>
			<v:textBlock v:margins="rect(4,4,4,4)" v:tabSpace="42.5197"/>
			<v:textRect cx="79.9668" cy="541.964" width="139.95" height="93.2947"/>
			<g id="shadow4-20" v:groupContext="shadow" v:shadowOffsetX="0.345598" v:shadowOffsetY="-1.97279" v:shadowType="1"
					transform="matrix(1,0,0,1,0.345598,1.97279)" class="st1">
				<path d="M0 541.96 A79.9668 53.3112 0 0 1 159.93 541.96 A79.9668 53.3112 0 1 1 0 541.96 Z" class="st2"/>
			</g>
			<path d="M0 541.96 A79.9668 53.3112 0 0 1 159.93 541.96 A79.9668 53.3112 0 1 1 0 541.96 Z" class="st5"/>
			<text x="51.59" y="547.36" class="st4" v:langID="2052"><v:paragraph v:horizAlign="1"/><v:tabList/>Reactor</text>		</g>
		<g id="shape5-25" v:mID="5" v:groupContext="shape" transform="translate(524.409,-276.378)">
			<title>椭圆形.5</title>
			<desc>acceptor</desc>
			<v:userDefs>
				<v:ud v:nameU="visVersion" v:val="VT0(15):26"/>
			</v:userDefs>
			<v:textBlock v:margins="rect(4,4,4,4)" v:tabSpace="42.5197"/>
			<v:textRect cx="62.7725" cy="556.299" width="109.86" height="68.2087"/>
			<g id="shadow5-26" v:groupContext="shadow" v:shadowOffsetX="0.345598" v:shadowOffsetY="-1.97279" v:shadowType="1"
					transform="matrix(1,0,0,1,0.345598,1.97279)" class="st1">
				<path d="M0 556.3 A62.7725 38.9764 0 1 1 125.54 556.3 A62.7725 38.9764 0 1 1 0 556.3 Z" class="st2"/>
			</g>
			<path d="M0 556.3 A62.7725 38.9764 0 1 1 125.54 556.3 A62.7725 38.9764 0 1 1 0 556.3 Z" class="st6"/>
			<text x="30.75" y="561.7" class="st4" v:langID="2052"><v:paragraph v:horizAlign="1"/><v:tabList/>acceptor</text>		</g>
		<g id="shape18-31" v:mID="18" v:groupContext="shape" transform="translate(617.497,-310.734) rotate(14.3729)">
			<title>工作表.18</title>
			<path d="M0 595.28 L49.41 595.28" class="st7"/>
		</g>
		<g id="shape29-37" v:mID="29" v:groupContext="shape" transform="translate(155.906,-102.756)">
			<title>椭圆形.29</title>
			<desc>Thread Pool</desc>
			<v:userDefs>
				<v:ud v:nameU="visVersion" v:val="VT0(15):26"/>
			</v:userDefs>
			<v:textBlock v:margins="rect(4,4,4,4)" v:tabSpace="42.5197"/>
			<v:textRect cx="139.606" cy="556.299" width="244.32" height="68.2087"/>
			<path d="M0 556.3 A139.606 38.9764 0 1 1 279.21 556.3 A139.606 38.9764 0 0 1 0 556.3 Z" class="st9"/>
			<text x="80.92" y="563.5" class="st10" v:langID="2052"><v:paragraph v:horizAlign="1"/><v:tabList/>Thread Pool</text>		</g>
		<g id="shape31-42" v:mID="31" v:groupContext="shape" transform="translate(141.732,-233.858)">
			<title>椭圆形.31</title>
			<desc>Queue Tasks</desc>
			<v:userDefs>
				<v:ud v:nameU="visVersion" v:val="VT0(15):26"/>
			</v:userDefs>
			<v:textBlock v:margins="rect(4,4,4,4)" v:tabSpace="42.5197"/>
			<v:textRect cx="62.7725" cy="564.057" width="109.86" height="54.6322"/>
			<path d="M0 564.06 A62.7725 31.2184 0 1 1 125.54 564.06 A62.7725 31.2184 0 0 1 -0 564.06 Z" class="st9"/>
			<text x="16.44" y="569.46" class="st11" v:langID="2052"><v:paragraph v:horizAlign="1"/><v:tabList/>Queue Tasks</text>		</g>
		<g id="shape32-46" v:mID="32" v:groupContext="shape" transform="translate(504.709,-152.616) rotate(30.2856)">
			<title>工作表.32</title>
			<path d="M0 595.28 L98.35 595.28" class="st7"/>
		</g>
		<g id="shape34-51" v:mID="34" v:groupContext="shape" transform="translate(468.984,-398.984) rotate(22.5247)">
			<title>工作表.34</title>
			<path d="M0 595.28 L154.07 595.28" class="st7"/>
		</g>
		<g id="shape35-56" v:mID="35" v:groupContext="shape" transform="translate(985.039,150.88) rotate(90)">
			<title>工作表.35</title>
			<path d="M0 595.28 L54.68 595.28" class="st7"/>
		</g>
		<g id="shape36-61" v:mID="36" v:groupContext="shape" transform="translate(766.622,700.745) rotate(157.475)">
			<title>工作表.36</title>
			<path d="M0 595.28 L154.07 595.28" class="st7"/>
		</g>
		<g id="shape37-66" v:mID="37" v:groupContext="shape" transform="translate(455.669,-170.079)">
			<title>矩形</title>
			<v:userDefs>
				<v:ud v:nameU="visVersion" v:val="VT0(15):26"/>
			</v:userDefs>
			<rect x="0" y="552.756" width="267.165" height="42.5197" class="st9"/>
		</g>
		<g id="shape38-69" v:mID="38" v:groupContext="shape" transform="translate(455.669,-120.472)">
			<title>矩形.38</title>
			<v:userDefs>
				<v:ud v:nameU="visVersion" v:val="VT0(15):26"/>
			</v:userDefs>
			<rect x="0" y="552.756" width="267.165" height="42.5197" class="st9"/>
		</g>
		<g id="shape39-72" v:mID="39" v:groupContext="shape" transform="translate(455.669,-70.8661)">
			<title>矩形.39</title>
			<v:userDefs>
				<v:ud v:nameU="visVersion" v:val="VT0(15):26"/>
			</v:userDefs>
			<rect x="0" y="552.756" width="267.165" height="42.5197" class="st9"/>
		</g>
		<g id="shape43-75" v:mID="43" v:groupContext="shape" transform="translate(464.173,-175.394)">
			<title>椭圆形.43</title>
			<desc>decode</desc>
			<v:userDefs>
				<v:ud v:nameU="visVersion" v:val="VT0(15):26"/>
			</v:userDefs>
			<v:textBlock v:margins="rect(4,4,4,4)" v:tabSpace="42.5197"/>
			<v:textRect cx="37.2047" cy="579.331" width="65.11" height="27.9035"/>
			<path d="M0 579.33 A37.2047 15.9449 0 1 1 74.41 579.33 A37.2047 15.9449 0 1 1 0 579.33 Z" class="st9"/>
			<text x="22.22" y="582.33" class="st12" v:langID="2052"><v:paragraph v:horizAlign="1"/><v:tabList/>decode</text>		</g>
		<g id="shape44-79" v:mID="44" v:groupContext="shape" transform="translate(549.977,-175.394)">
			<title>椭圆形.44</title>
			<desc>compute</desc>
			<v:userDefs>
				<v:ud v:nameU="visVersion" v:val="VT0(15):26"/>
			</v:userDefs>
			<v:textBlock v:margins="rect(4,4,4,4)" v:tabSpace="42.5197"/>
			<v:textRect cx="37.2047" cy="579.331" width="65.11" height="27.9035"/>
			<path d="M0 579.33 A37.2047 15.9449 0 1 1 74.41 579.33 A37.2047 15.9449 0 1 1 0 579.33 Z" class="st9"/>
			<text x="19.04" y="582.33" class="st12" v:langID="2052"><v:paragraph v:horizAlign="1"/><v:tabList/>compute</text>		</g>
		<g id="shape45-83" v:mID="45" v:groupContext="shape" transform="translate(635.781,-175.394)">
			<title>椭圆形.45</title>
			<desc>encode</desc>
			<v:userDefs>
				<v:ud v:nameU="visVersion" v:val="VT0(15):26"/>
			</v:userDefs>
			<v:textBlock v:margins="rect(4,4,4,4)" v:tabSpace="42.5197"/>
			<v:textRect cx="37.2047" cy="579.331" width="65.11" height="27.9035"/>
			<path d="M0 579.33 A37.2047 15.9449 0 1 1 74.41 579.33 A37.2047 15.9449 0 1 1 0 579.33 Z" class="st9"/>
			<text x="22.22" y="582.33" class="st12" v:langID="2052"><v:paragraph v:horizAlign="1"/><v:tabList/>encode</text>		</g>
		<g id="shape47-87" v:mID="47" v:groupContext="shape" transform="translate(467.717,-125.787)">
			<title>椭圆形.47</title>
			<desc>decode</desc>
			<v:userDefs>
				<v:ud v:nameU="visVersion" v:val="VT0(15):26"/>
			</v:userDefs>
			<v:textBlock v:margins="rect(4,4,4,4)" v:tabSpace="42.5197"/>
			<v:textRect cx="37.2047" cy="579.331" width="65.11" height="27.9035"/>
			<path d="M0 579.33 A37.2047 15.9449 0 1 1 74.41 579.33 A37.2047 15.9449 0 1 1 0 579.33 Z" class="st9"/>
			<text x="22.22" y="582.33" class="st12" v:langID="2052"><v:paragraph v:horizAlign="1"/><v:tabList/>decode</text>		</g>
		<g id="shape48-91" v:mID="48" v:groupContext="shape" transform="translate(553.521,-125.787)">
			<title>椭圆形.48</title>
			<desc>compute</desc>
			<v:userDefs>
				<v:ud v:nameU="visVersion" v:val="VT0(15):26"/>
			</v:userDefs>
			<v:textBlock v:margins="rect(4,4,4,4)" v:tabSpace="42.5197"/>
			<v:textRect cx="37.2047" cy="579.331" width="65.11" height="27.9035"/>
			<path d="M0 579.33 A37.2047 15.9449 0 1 1 74.41 579.33 A37.2047 15.9449 0 1 1 0 579.33 Z" class="st9"/>
			<text x="19.04" y="582.33" class="st12" v:langID="2052"><v:paragraph v:horizAlign="1"/><v:tabList/>compute</text>		</g>
		<g id="shape49-95" v:mID="49" v:groupContext="shape" transform="translate(639.324,-125.787)">
			<title>椭圆形.49</title>
			<desc>encode</desc>
			<v:userDefs>
				<v:ud v:nameU="visVersion" v:val="VT0(15):26"/>
			</v:userDefs>
			<v:textBlock v:margins="rect(4,4,4,4)" v:tabSpace="42.5197"/>
			<v:textRect cx="37.2047" cy="579.331" width="65.11" height="27.9035"/>
			<path d="M0 579.33 A37.2047 15.9449 0 1 1 74.41 579.33 A37.2047 15.9449 0 1 1 0 579.33 Z" class="st9"/>
			<text x="22.22" y="582.33" class="st12" v:langID="2052"><v:paragraph v:horizAlign="1"/><v:tabList/>encode</text>		</g>
		<g id="shape50-99" v:mID="50" v:groupContext="shape" transform="translate(467.717,-76.8338)">
			<title>椭圆形.50</title>
			<desc>decode</desc>
			<v:userDefs>
				<v:ud v:nameU="visVersion" v:val="VT0(15):26"/>
			</v:userDefs>
			<v:textBlock v:margins="rect(4,4,4,4)" v:tabSpace="42.5197"/>
			<v:textRect cx="37.2047" cy="579.331" width="65.11" height="27.9035"/>
			<path d="M0 579.33 A37.2047 15.9449 0 1 1 74.41 579.33 A37.2047 15.9449 0 1 1 0 579.33 Z" class="st9"/>
			<text x="22.22" y="582.33" class="st12" v:langID="2052"><v:paragraph v:horizAlign="1"/><v:tabList/>decode</text>		</g>
		<g id="shape51-103" v:mID="51" v:groupContext="shape" transform="translate(553.521,-76.8338)">
			<title>椭圆形.51</title>
			<desc>compute</desc>
			<v:userDefs>
				<v:ud v:nameU="visVersion" v:val="VT0(15):26"/>
			</v:userDefs>
			<v:textBlock v:margins="rect(4,4,4,4)" v:tabSpace="42.5197"/>
			<v:textRect cx="37.2047" cy="579.331" width="65.11" height="27.9035"/>
			<path d="M0 579.33 A37.2047 15.9449 0 1 1 74.41 579.33 A37.2047 15.9449 0 1 1 0 579.33 Z" class="st9"/>
			<text x="19.04" y="582.33" class="st12" v:langID="2052"><v:paragraph v:horizAlign="1"/><v:tabList/>compute</text>		</g>
		<g id="shape52-107" v:mID="52" v:groupContext="shape" transform="translate(639.324,-76.8338)">
			<title>椭圆形.52</title>
			<desc>encode</desc>
			<v:userDefs>
				<v:ud v:nameU="visVersion" v:val="VT0(15):26"/>
			</v:userDefs>
			<v:textBlock v:margins="rect(4,4,4,4)" v:tabSpace="42.5197"/>
			<v:textRect cx="37.2047" cy="579.331" width="65.11" height="27.9035"/>
			<path d="M0 579.33 A37.2047 15.9449 0 1 1 74.41 579.33 A37.2047 15.9449 0 1 1 0 579.33 Z" class="st9"/>
			<text x="22.22" y="582.33" class="st12" v:langID="2052"><v:paragraph v:horizAlign="1"/><v:tabList/>encode</text>		</g>
		<g id="shape54-111" v:mID="54" v:groupContext="shape" transform="translate(985.067,225.707) rotate(67.4965)">
			<title>工作表.54</title>
			<path d="M0 595.28 L46.65 595.28" class="st7"/>
		</g>
		<g id="shape56-116" v:mID="56" v:groupContext="shape" transform="translate(435.118,-141.732)">
			<title>工作表.56</title>
			<path d="M0 595.28 L13.51 595.28" class="st7"/>
		</g>
		<g id="shape57-121" v:mID="57" v:groupContext="shape" transform="translate(-114.831,225.707) rotate(-67.4965)">
			<title>工作表.57</title>
			<path d="M0 595.28 L46.65 595.28" class="st7"/>
		</g>
		<g id="shape58-126" v:mID="58" v:groupContext="shape" transform="translate(538.583,-191.339)">
			<title>工作表.58</title>
			<path d="M0 595.28 L11.39 595.28" class="st13"/>
		</g>
		<g id="shape59-129" v:mID="59" v:groupContext="shape" transform="translate(624.387,-191.339)">
			<title>工作表.59</title>
			<path d="M0 595.28 L11.39 595.28" class="st13"/>
		</g>
		<g id="shape61-132" v:mID="61" v:groupContext="shape" transform="translate(542.126,-141.732)">
			<title>工作表.61</title>
			<path d="M0 595.28 L11.39 595.28" class="st13"/>
		</g>
		<g id="shape62-135" v:mID="62" v:groupContext="shape" transform="translate(627.93,-141.732)">
			<title>工作表.62</title>
			<path d="M0 595.28 L11.39 595.28" class="st13"/>
		</g>
		<g id="shape63-138" v:mID="63" v:groupContext="shape" transform="translate(542.126,-92.7787)">
			<title>工作表.63</title>
			<path d="M0 595.28 L11.39 595.28" class="st13"/>
		</g>
		<g id="shape64-141" v:mID="64" v:groupContext="shape" transform="translate(627.93,-92.7787)">
			<title>工作表.64</title>
			<path d="M0 595.28 L11.39 595.28" class="st13"/>
		</g>
		<g id="shape65-144" v:mID="65" v:groupContext="shape" transform="translate(488.174,833.831) rotate(162.563)">
			<title>工作表.65</title>
			<path d="M0 595.28 L103.32 595.28" class="st7"/>
		</g>
	</g>
</svg>
